<svg xmlns="http://www.w3.org/2000/svg" version="1.1" xmlns:xlink="http://www.w3.org/1999/xlink" width="1000" height="1000"><style>
    #light-icon {
      display: inline;
    }
    #dark-icon {
      display: none;
    }

    @media (prefers-color-scheme: dark) {
      #light-icon {
        display: none;
      }
      #dark-icon {
        display: inline;
      }
    }
  </style><g id="light-icon"><svg xmlns="http://www.w3.org/2000/svg" version="1.1" xmlns:xlink="http://www.w3.org/1999/xlink" width="1000" height="1000"><g><g transform="matrix(25,0,0,25,0,0)"><svg xmlns="http://www.w3.org/2000/svg" version="1.1" xmlns:xlink="http://www.w3.org/1999/xlink" width="40" height="40"><svg xmlns="http://www.w3.org/2000/svg" xmlns:xlink="http://www.w3.org/1999/xlink" width="40" zoomAndPan="magnify" viewBox="0 0 30 30.000001" height="40" preserveAspectRatio="xMidYMid meet" version="1.0"><defs><g></g></defs><g fill="#000000" fill-opacity="1"><g transform="translate(1.5, 22.40323)"><g><path d="M 5.703125 -21.03125 L 8.453125 -21.03125 C 8.941406 -21.03125 9.304688 -21 9.546875 -20.9375 C 10.046875 -20.875 10.382812 -20.734375 10.5625 -20.515625 C 10.738281 -20.273438 10.828125 -19.894531 10.828125 -19.375 C 10.828125 -19.175781 10.8125 -18.863281 10.78125 -18.4375 C 10.75 -18.019531 10.6875 -17.484375 10.59375 -16.828125 L 10.3125 -14.875 L 16.921875 -14.875 C 16.742188 -13.59375 16.59375 -12.734375 16.46875 -12.296875 C 16.332031 -11.734375 16.070312 -11.320312 15.6875 -11.0625 C 15.425781 -10.90625 15.078125 -10.796875 14.640625 -10.734375 C 14.441406 -10.710938 14.125 -10.695312 13.6875 -10.6875 C 13.257812 -10.6875 12.71875 -10.6875 12.0625 -10.6875 L 9.71875 -10.6875 L 9.5625 -9.5625 L 8.96875 -5.34375 L 8.8125 -4.265625 L 15.421875 -4.265625 C 15.335938 -3.640625 15.257812 -3.113281 15.1875 -2.6875 C 15.125 -2.269531 15.0625 -1.953125 15 -1.734375 C 14.875 -1.234375 14.6875 -0.851562 14.4375 -0.59375 C 14.207031 -0.375 13.816406 -0.21875 13.265625 -0.125 C 12.835938 -0.0625 11.992188 -0.03125 10.734375 -0.03125 L 8.046875 -0.03125 C 6.742188 -0.03125 5.878906 -0.0625 5.453125 -0.125 C 4.921875 -0.21875 4.5625 -0.394531 4.375 -0.65625 C 4.257812 -0.875 4.203125 -1.164062 4.203125 -1.53125 L 4.203125 -2.015625 C 4.265625 -2.410156 4.382812 -3.160156 4.5625 -4.265625 L 4.703125 -5.34375 L 5.3125 -9.5625 L 5.453125 -10.6875 L 1.203125 -10.6875 C 1.296875 -11.257812 1.375 -11.738281 1.4375 -12.125 C 1.5 -12.519531 1.539062 -12.804688 1.5625 -12.984375 C 1.738281 -13.703125 2 -14.191406 2.34375 -14.453125 C 2.644531 -14.640625 3.046875 -14.757812 3.546875 -14.8125 C 3.742188 -14.851562 3.992188 -14.875 4.296875 -14.875 C 4.609375 -14.875 4.988281 -14.875 5.4375 -14.875 L 6.0625 -14.875 L 6.65625 -19.203125 C 6.675781 -19.359375 6.6875 -19.476562 6.6875 -19.5625 C 6.6875 -19.65625 6.6875 -19.722656 6.6875 -19.765625 C 6.6875 -19.953125 6.664062 -20.070312 6.625 -20.125 C 6.601562 -20.1875 6.566406 -20.253906 6.515625 -20.328125 C 6.472656 -20.398438 6.398438 -20.460938 6.296875 -20.515625 C 6.253906 -20.578125 6.179688 -20.644531 6.078125 -20.71875 C 5.984375 -20.800781 5.859375 -20.90625 5.703125 -21.03125 Z M 5.703125 -21.03125 "></path></g></g></g><g fill="#f5e168" fill-opacity="1"><g transform="translate(10.209677, 27.483875)"><g><path d="M 2.0625 -14.84375 L 13.59375 -14.84375 C 14.050781 -14.84375 14.4375 -14.84375 14.75 -14.84375 C 15.070312 -14.84375 15.328125 -14.828125 15.515625 -14.796875 C 15.992188 -14.734375 16.320312 -14.613281 16.5 -14.4375 C 16.738281 -14.1875 16.859375 -13.773438 16.859375 -13.203125 L 16.859375 -12.984375 C 16.859375 -12.785156 16.835938 -12.488281 16.796875 -12.09375 C 16.753906 -11.707031 16.695312 -11.226562 16.625 -10.65625 L 16.46875 -9.546875 C 16.382812 -8.984375 16.304688 -8.503906 16.234375 -8.109375 C 16.171875 -7.722656 16.117188 -7.421875 16.078125 -7.203125 C 15.960938 -6.640625 15.785156 -6.226562 15.546875 -5.96875 C 15.316406 -5.6875 14.882812 -5.5 14.25 -5.40625 C 13.875 -5.34375 13.125 -5.3125 12 -5.3125 L 4.984375 -5.3125 C 4.960938 -5.164062 4.945312 -5.046875 4.9375 -4.953125 C 4.925781 -4.867188 4.921875 -4.796875 4.921875 -4.734375 C 4.921875 -4.535156 4.929688 -4.40625 4.953125 -4.34375 C 5.015625 -4.289062 5.09375 -4.253906 5.1875 -4.234375 C 5.25 -4.234375 5.328125 -4.234375 5.421875 -4.234375 C 5.523438 -4.234375 5.648438 -4.222656 5.796875 -4.203125 L 15.71875 -4.203125 C 15.65625 -3.722656 15.597656 -3.320312 15.546875 -3 C 15.503906 -2.675781 15.460938 -2.425781 15.421875 -2.25 C 15.359375 -1.925781 15.285156 -1.65625 15.203125 -1.4375 C 15.128906 -1.21875 15.039062 -1.03125 14.9375 -0.875 C 14.738281 -0.507812 14.390625 -0.269531 13.890625 -0.15625 C 13.691406 -0.113281 13.335938 -0.078125 12.828125 -0.046875 C 12.316406 -0.015625 11.660156 0 10.859375 0 L 4.265625 0 C 2.941406 0 2.070312 -0.03125 1.65625 -0.09375 C 1.050781 -0.1875 0.660156 -0.375 0.484375 -0.65625 C 0.359375 -0.894531 0.296875 -1.21875 0.296875 -1.625 C 0.296875 -1.695312 0.300781 -1.769531 0.3125 -1.84375 C 0.320312 -1.914062 0.328125 -1.984375 0.328125 -2.046875 C 0.347656 -2.242188 0.378906 -2.519531 0.421875 -2.875 C 0.460938 -3.238281 0.507812 -3.679688 0.5625 -4.203125 L 0.71875 -5.3125 C 0.800781 -5.832031 0.867188 -6.265625 0.921875 -6.609375 C 0.984375 -6.960938 1.023438 -7.226562 1.046875 -7.40625 C 1.191406 -8.1875 1.410156 -8.707031 1.703125 -8.96875 C 1.960938 -9.1875 2.273438 -9.328125 2.640625 -9.390625 C 2.859375 -9.453125 3.171875 -9.492188 3.578125 -9.515625 C 3.992188 -9.535156 4.5 -9.546875 5.09375 -9.546875 L 12.1875 -9.546875 C 12.238281 -9.785156 12.265625 -9.941406 12.265625 -10.015625 L 12.265625 -10.203125 C 12.265625 -10.378906 12.238281 -10.476562 12.1875 -10.5 C 12.101562 -10.582031 12 -10.625 11.875 -10.625 C 11.820312 -10.644531 11.601562 -10.65625 11.21875 -10.65625 L 5.734375 -10.65625 C 4.347656 -10.65625 3.445312 -10.679688 3.03125 -10.734375 C 2.445312 -10.835938 2.066406 -11.039062 1.890625 -11.34375 C 1.785156 -11.582031 1.734375 -11.863281 1.734375 -12.1875 L 1.734375 -12.421875 C 1.753906 -12.640625 1.796875 -12.945312 1.859375 -13.34375 C 1.921875 -13.75 1.988281 -14.25 2.0625 -14.84375 Z M 2.0625 -14.84375 "></path></g></g></g></svg></svg></g></g></svg></g><g id="dark-icon"><svg xmlns="http://www.w3.org/2000/svg" version="1.1" xmlns:xlink="http://www.w3.org/1999/xlink" width="1000" height="1000"><g><g transform="matrix(25,0,0,25,0,0)"><svg xmlns="http://www.w3.org/2000/svg" version="1.1" xmlns:xlink="http://www.w3.org/1999/xlink" width="40" height="40"><svg xmlns="http://www.w3.org/2000/svg" xmlns:xlink="http://www.w3.org/1999/xlink" width="40" zoomAndPan="magnify" viewBox="0 0 30 30.000001" height="40" preserveAspectRatio="xMidYMid meet" version="1.0"><defs><g></g></defs><g fill="#ffffff" fill-opacity="1"><g transform="translate(1.5, 22.40323)"><g><path d="M 5.703125 -21.03125 L 8.453125 -21.03125 C 8.941406 -21.03125 9.304688 -21 9.546875 -20.9375 C 10.046875 -20.875 10.382812 -20.734375 10.5625 -20.515625 C 10.738281 -20.273438 10.828125 -19.894531 10.828125 -19.375 C 10.828125 -19.175781 10.8125 -18.863281 10.78125 -18.4375 C 10.75 -18.019531 10.6875 -17.484375 10.59375 -16.828125 L 10.3125 -14.875 L 16.921875 -14.875 C 16.742188 -13.59375 16.59375 -12.734375 16.46875 -12.296875 C 16.332031 -11.734375 16.070312 -11.320312 15.6875 -11.0625 C 15.425781 -10.90625 15.078125 -10.796875 14.640625 -10.734375 C 14.441406 -10.710938 14.125 -10.695312 13.6875 -10.6875 C 13.257812 -10.6875 12.71875 -10.6875 12.0625 -10.6875 L 9.71875 -10.6875 L 9.5625 -9.5625 L 8.96875 -5.34375 L 8.8125 -4.265625 L 15.421875 -4.265625 C 15.335938 -3.640625 15.257812 -3.113281 15.1875 -2.6875 C 15.125 -2.269531 15.0625 -1.953125 15 -1.734375 C 14.875 -1.234375 14.6875 -0.851562 14.4375 -0.59375 C 14.207031 -0.375 13.816406 -0.21875 13.265625 -0.125 C 12.835938 -0.0625 11.992188 -0.03125 10.734375 -0.03125 L 8.046875 -0.03125 C 6.742188 -0.03125 5.878906 -0.0625 5.453125 -0.125 C 4.921875 -0.21875 4.5625 -0.394531 4.375 -0.65625 C 4.257812 -0.875 4.203125 -1.164062 4.203125 -1.53125 L 4.203125 -2.015625 C 4.265625 -2.410156 4.382812 -3.160156 4.5625 -4.265625 L 4.703125 -5.34375 L 5.3125 -9.5625 L 5.453125 -10.6875 L 1.203125 -10.6875 C 1.296875 -11.257812 1.375 -11.738281 1.4375 -12.125 C 1.5 -12.519531 1.539062 -12.804688 1.5625 -12.984375 C 1.738281 -13.703125 2 -14.191406 2.34375 -14.453125 C 2.644531 -14.640625 3.046875 -14.757812 3.546875 -14.8125 C 3.742188 -14.851562 3.992188 -14.875 4.296875 -14.875 C 4.609375 -14.875 4.988281 -14.875 5.4375 -14.875 L 6.0625 -14.875 L 6.65625 -19.203125 C 6.675781 -19.359375 6.6875 -19.476562 6.6875 -19.5625 C 6.6875 -19.65625 6.6875 -19.722656 6.6875 -19.765625 C 6.6875 -19.953125 6.664062 -20.070312 6.625 -20.125 C 6.601562 -20.1875 6.566406 -20.253906 6.515625 -20.328125 C 6.472656 -20.398438 6.398438 -20.460938 6.296875 -20.515625 C 6.253906 -20.578125 6.179688 -20.644531 6.078125 -20.71875 C 5.984375 -20.800781 5.859375 -20.90625 5.703125 -21.03125 Z M 5.703125 -21.03125 "></path></g></g></g><g fill="#f5e168" fill-opacity="1"><g transform="translate(10.209677, 27.483875)"><g><path d="M 2.0625 -14.84375 L 13.59375 -14.84375 C 14.050781 -14.84375 14.4375 -14.84375 14.75 -14.84375 C 15.070312 -14.84375 15.328125 -14.828125 15.515625 -14.796875 C 15.992188 -14.734375 16.320312 -14.613281 16.5 -14.4375 C 16.738281 -14.1875 16.859375 -13.773438 16.859375 -13.203125 L 16.859375 -12.984375 C 16.859375 -12.785156 16.835938 -12.488281 16.796875 -12.09375 C 16.753906 -11.707031 16.695312 -11.226562 16.625 -10.65625 L 16.46875 -9.546875 C 16.382812 -8.984375 16.304688 -8.503906 16.234375 -8.109375 C 16.171875 -7.722656 16.117188 -7.421875 16.078125 -7.203125 C 15.960938 -6.640625 15.785156 -6.226562 15.546875 -5.96875 C 15.316406 -5.6875 14.882812 -5.5 14.25 -5.40625 C 13.875 -5.34375 13.125 -5.3125 12 -5.3125 L 4.984375 -5.3125 C 4.960938 -5.164062 4.945312 -5.046875 4.9375 -4.953125 C 4.925781 -4.867188 4.921875 -4.796875 4.921875 -4.734375 C 4.921875 -4.535156 4.929688 -4.40625 4.953125 -4.34375 C 5.015625 -4.289062 5.09375 -4.253906 5.1875 -4.234375 C 5.25 -4.234375 5.328125 -4.234375 5.421875 -4.234375 C 5.523438 -4.234375 5.648438 -4.222656 5.796875 -4.203125 L 15.71875 -4.203125 C 15.65625 -3.722656 15.597656 -3.320312 15.546875 -3 C 15.503906 -2.675781 15.460938 -2.425781 15.421875 -2.25 C 15.359375 -1.925781 15.285156 -1.65625 15.203125 -1.4375 C 15.128906 -1.21875 15.039062 -1.03125 14.9375 -0.875 C 14.738281 -0.507812 14.390625 -0.269531 13.890625 -0.15625 C 13.691406 -0.113281 13.335938 -0.078125 12.828125 -0.046875 C 12.316406 -0.015625 11.660156 0 10.859375 0 L 4.265625 0 C 2.941406 0 2.070312 -0.03125 1.65625 -0.09375 C 1.050781 -0.1875 0.660156 -0.375 0.484375 -0.65625 C 0.359375 -0.894531 0.296875 -1.21875 0.296875 -1.625 C 0.296875 -1.695312 0.300781 -1.769531 0.3125 -1.84375 C 0.320312 -1.914062 0.328125 -1.984375 0.328125 -2.046875 C 0.347656 -2.242188 0.378906 -2.519531 0.421875 -2.875 C 0.460938 -3.238281 0.507812 -3.679688 0.5625 -4.203125 L 0.71875 -5.3125 C 0.800781 -5.832031 0.867188 -6.265625 0.921875 -6.609375 C 0.984375 -6.960938 1.023438 -7.226562 1.046875 -7.40625 C 1.191406 -8.1875 1.410156 -8.707031 1.703125 -8.96875 C 1.960938 -9.1875 2.273438 -9.328125 2.640625 -9.390625 C 2.859375 -9.453125 3.171875 -9.492188 3.578125 -9.515625 C 3.992188 -9.535156 4.5 -9.546875 5.09375 -9.546875 L 12.1875 -9.546875 C 12.238281 -9.785156 12.265625 -9.941406 12.265625 -10.015625 L 12.265625 -10.203125 C 12.265625 -10.378906 12.238281 -10.476562 12.1875 -10.5 C 12.101562 -10.582031 12 -10.625 11.875 -10.625 C 11.820312 -10.644531 11.601562 -10.65625 11.21875 -10.65625 L 5.734375 -10.65625 C 4.347656 -10.65625 3.445312 -10.679688 3.03125 -10.734375 C 2.445312 -10.835938 2.066406 -11.039062 1.890625 -11.34375 C 1.785156 -11.582031 1.734375 -11.863281 1.734375 -12.1875 L 1.734375 -12.421875 C 1.753906 -12.640625 1.796875 -12.945312 1.859375 -13.34375 C 1.921875 -13.75 1.988281 -14.25 2.0625 -14.84375 Z M 2.0625 -14.84375 "></path></g></g></g></svg></svg></g></g></svg></g></svg>